<svg xmlns="http://www.w3.org/2000/svg" width="1200" height="600" viewBox="0 0 600 300">
  <style>
    .logo-text { fill: #FFFFFF; font-family: 'Montserrat', sans-serif; font-size: 60px; text-anchor: middle; dominant-baseline: middle; letter-spacing: 4px; }
    .catchphrase { fill: #FFFFFF; font-family: 'Montserrat', sans-serif; font-size: 20px; text-anchor: middle; dominant-baseline: middle; }
  </style>
  
  <!-- Background -->
  <rect width="100%" height="100%" fill="#F9A825" />
  
  <!-- Curvy Shape -->
  <path d="M0 125 Q300 250 600 125 V300 H0 Z" fill="#333" />
  
  <!-- Text -->
  <text class="logo-text" x="50%" y="50%">≡WORKSPACES≡</text>
  
  <!-- Catchphrase -->
  <text class="catchphrase" x="50%" y="75%">work from home</text>
  <text class="catchphrase" x="50%" y="82%">away from home</text>
  
  <!-- Cityscape -->
  <path d="M50 200 H60 V190 H80 V210 H90 V200 H110 V220 H120 V200 H140 V220 H150 V210 H200 V230 H210 V220 H230 V240 H240 V230 H250 V210 H260 V220 H280 V200 H300 V220 H310 V210 H330 V230 H340 V210 H350 V200 H370 V220 H380 V200 H400 V220 H410 V210 H430 V230 H440 V210 H450 V200 H470 V220 H480 V190 H500 V210 H510 V200 H530 V220 H540 V200 H560 V220 H570 V210 H590 V230 H600 V300 H0 Z" fill="#000000" opacity="0.4" />
</svg>
